# xmcd
#
# Track frame offsets:
#	150
#	19163
#	41290
#	62696
#	83987
#	102575
#	118847
#	135133
#	150273
#	164058
#	176805
#	201359
#	221382
#	237849
#	254650
#	273273
#	289566
#	303685
#	325028
#
# Disc length: 4581 seconds
#
# Revision: 0
# Processed by: cddbd v1.5.2PL0 Copyright (c) Steve Scherf et al.
# Submitted via: dBpowerAMP V4.0
#
DISCID=0e11e313
DTITLE=gator fest - backwoods country
DYEAR=1900
DGENRE=
TTITLE0=i miss u with me
TTITLE1=love song
TTITLE2=idk
TTITLE3=i wish you would
TTITLE4=mexico
TTITLE5=check the lost and found
TTITLE6=idk
TTITLE7=idk
TTITLE8=idk
TTITLE9=idk
TTITLE10=idk
TTITLE11=bill creagor
TTITLE12=fly so high when your around
TTITLE13=ho
TTITLE14=idk
TTITLE15=idk
TTITLE16=idk
TTITLE17=good
TTITLE18=ick
EXTD=
EXTT0=
EXTT1=
EXTT2=
EXTT3=
EXTT4=
EXTT5=
EXTT6=
EXTT7=
EXTT8=
EXTT9=
EXTT10=
EXTT11=
EXTT12=
EXTT13=
EXTT14=
EXTT15=
EXTT16=
EXTT17=
EXTT18=
PLAYORDER=
